<svg width="24" height="24" viewBox="0 0 24 24" fill="none" xmlns="http://www.w3.org/2000/svg">
  <path fill-rule="evenodd" clip-rule="evenodd"
    d="M3.58579 3.58579C3.96086 3.21071 4.46957 3 5 3H19C19.5304 3 20.0391 3.21071 20.4142 3.58579C20.7893 3.96086 21 4.46957 21 5V7.28C21.3023 7.45451 21.5536 7.70509 21.7291 8.00683C21.9045 8.30857 21.9979 8.65097 22 9V15C21.9979 15.349 21.9045 15.6914 21.7291 15.9932C21.5536 16.2949 21.3023 16.5455 21 16.72V19C21 19.5304 20.7893 20.0391 20.4142 20.4142C20.0391 20.7893 19.5304 21 19 21H10.1973C10.5487 20.3926 10.7966 19.7179 10.917 19H19V17H13C12.4696 17 11.9609 16.7893 11.5858 16.4142C11.2107 16.0391 11 15.5304 11 15V9C11 8.46957 11.2107 7.96086 11.5858 7.58579C11.9609 7.21071 12.4696 7 13 7H19V5H5V12C4.29873 12 3.62556 12.1203 3 12.3414V5C3 4.46957 3.21071 3.96086 3.58579 3.58579ZM20 9H13V15H20V9ZM14.9393 10.9393C15.2206 10.658 15.6022 10.5 16 10.5C16.3978 10.5 16.7794 10.658 17.0607 10.9393C17.342 11.2206 17.5 11.6022 17.5 12C17.5 12.3978 17.342 12.7794 17.0607 13.0607C16.7794 13.342 16.3978 13.5 16 13.5C15.6022 13.5 15.2206 13.342 14.9393 13.0607C14.658 12.7794 14.5 12.3978 14.5 12C14.5 11.6022 14.658 11.2206 14.9393 10.9393Z"
    fill="black" />
  <path d="M6 17V18.5L9 16L6 13.5V15H2V17H6Z" fill="black" />
  <path d="M8 19H4V17.5L1 20L4 22.5V21H8V19Z" fill="black" />
</svg>